<svg width="29" height="29" viewBox="0 0 29 29" fill="none" xmlns="http://www.w3.org/2000/svg">
<g clip-path="url(#clip0_28_489)">
<path d="M13.8415 12.0652C12.1268 12.5691 10.0835 12.8289 7.71883 12.8458C8.20821 10.8472 9.55308 9.18454 11.3475 8.27346C12.2863 9.50113 13.1165 10.7662 13.8415 12.0652ZM15.0075 14.3973C14.8577 14.059 14.7006 13.7218 14.535 13.3883C12.5751 14.0046 10.2322 14.3175 7.52188 14.3212L7.51221 14.5C7.51221 16.1965 8.12121 17.7528 9.13138 18.9648C10.6611 16.6678 12.6247 15.1416 15.0075 14.3973ZM10.2104 20.0052C12.1063 21.4854 14.6462 21.9252 17.0061 21.0153C16.7016 19.2173 16.2207 17.4628 15.5682 15.7567C13.3702 16.4116 11.5988 17.8278 10.2104 20.0052ZM18.7594 8.97308C17.5788 8.062 16.1047 7.51221 14.5 7.51221C13.9079 7.51221 13.3352 7.59438 12.7866 7.73454C13.7098 8.97671 14.5278 10.2551 15.2455 11.5674C16.739 10.9342 17.9087 10.069 18.7594 8.97308ZM29 14.5C29 22.5076 22.5076 29 14.5 29C6.49238 29 0 22.5076 0 14.5C0 6.49238 6.49238 0 14.5 0C22.5076 0 29 6.49238 29 14.5ZM22.9583 14.5C22.9583 9.82858 19.1702 6.04167 14.5 6.04167C9.82979 6.04167 6.04167 9.82858 6.04167 14.5C6.04167 19.1714 9.82979 22.9583 14.5 22.9583C19.1702 22.9583 22.9583 19.1714 22.9583 14.5ZM15.921 12.87C16.1107 13.2615 16.2895 13.6566 16.4611 14.0541C17.9836 13.7919 19.6523 13.8076 21.4673 14.1049C21.379 12.5437 20.7833 11.1155 19.8312 9.99292C18.856 11.2073 17.5474 12.1655 15.921 12.87V12.87ZM17.0254 15.4461C17.6163 17.0278 18.0706 18.6494 18.3775 20.3073C19.9629 19.2439 21.0854 17.5474 21.3947 15.5839C19.8034 15.3084 18.3473 15.26 17.0254 15.4461V15.4461Z" fill="white"/>
</g>
<defs>
<clipPath id="clip0_28_489">
<rect width="29" height="29" fill="white"/>
</clipPath>
</defs>
</svg>
