<svg width="29" height="29" viewBox="0 0 29 29" fill="none" xmlns="http://www.w3.org/2000/svg">
<g clip-path="url(#clip0_28_491)">
<path d="M14.5 0C6.49238 0 0 6.49238 0 14.5C0 22.5076 6.49238 29 14.5 29C22.5076 29 29 22.5076 29 14.5C29 6.49238 22.5076 0 14.5 0ZM12.0833 19.3333H9.66667V12.0833H12.0833V19.3333ZM10.875 11.0067C10.1415 11.0067 9.54583 10.4074 9.54583 9.66667C9.54583 8.92717 10.1403 8.32663 10.875 8.32663C11.6097 8.32663 12.2042 8.92717 12.2042 9.66667C12.2042 10.4074 11.6085 11.0067 10.875 11.0067ZM20.5417 19.3333H18.1274V15.8763C18.1274 13.6034 15.7083 13.7955 15.7083 15.8763V19.3333H13.2917V12.0833H15.7083V13.404C16.762 11.4514 20.5417 11.3064 20.5417 15.2745V19.3333Z" fill="white"/>
</g>
<defs>
<clipPath id="clip0_28_491">
<rect width="29" height="29" fill="white"/>
</clipPath>
</defs>
</svg>
