<svg width="438" height="495" viewBox="0 0 438 495" fill="none" xmlns="http://www.w3.org/2000/svg">
<path d="M204.258 0H377.736C404.717 0 426.59 21.8363 426.59 48.7726V444.532C426.59 471.468 404.717 493.304 377.736 493.304H204.258C177.276 493.304 155.404 471.468 155.404 444.532V48.7726C155.404 21.8363 177.276 0 204.258 0Z" fill="#3F3D56"/>
<path d="M159.979 48.776V444.532C159.992 456.252 164.662 467.489 172.963 475.776C181.264 484.063 192.519 488.725 204.259 488.739H377.734C389.474 488.725 400.729 484.063 409.03 475.776C417.331 467.489 422.001 456.252 422.014 444.532V48.776C422.001 37.0559 417.331 25.8197 409.03 17.5323C400.729 9.24496 389.474 4.58315 377.734 4.56958H355.05V12.3927C355.049 15.9344 353.64 19.3309 351.132 21.8352C348.623 24.3396 345.221 25.7466 341.673 25.7468H240.32C236.772 25.7466 233.37 24.3396 230.861 21.8352C228.353 19.3309 226.944 15.9344 226.943 12.3927V4.56958H204.259C192.519 4.58315 181.264 9.24496 172.963 17.5323C164.662 25.8197 159.992 37.0559 159.979 48.776V48.776Z" fill="white"/>
<path d="M427.838 100.073C428.72 100.072 429.566 99.7214 430.189 99.0986C430.813 98.4759 431.164 97.6315 431.165 96.7508V90.1069C431.165 89.2259 430.814 88.381 430.19 87.758C429.566 87.135 428.72 86.785 427.838 86.785C426.955 86.785 426.109 87.135 425.485 87.758C424.861 88.381 424.51 89.2259 424.51 90.1069V96.7508C424.511 97.6315 424.862 98.4759 425.486 99.0986C426.11 99.7214 426.955 100.072 427.838 100.073V100.073Z" fill="#3F3D56"/>
<path d="M427.838 134.14C428.72 134.139 429.566 133.789 430.189 133.166C430.813 132.543 431.164 131.699 431.165 130.818V112.53C431.165 111.649 430.814 110.804 430.19 110.181C429.566 109.558 428.72 109.208 427.838 109.208C426.955 109.208 426.109 109.558 425.485 110.181C424.861 110.804 424.51 111.649 424.51 112.53V130.818C424.511 131.699 424.862 132.543 425.486 133.166C426.11 133.789 426.955 134.139 427.838 134.14V134.14Z" fill="#3F3D56"/>
<path d="M427.838 161.528C428.72 161.527 429.566 161.177 430.189 160.554C430.813 159.931 431.164 159.087 431.165 158.206V139.918C431.165 139.037 430.814 138.192 430.19 137.569C429.566 136.946 428.72 136.596 427.838 136.596C426.955 136.596 426.109 136.946 425.485 137.569C424.861 138.192 424.51 139.037 424.51 139.918V158.206C424.511 159.087 424.862 159.931 425.486 160.554C426.11 161.177 426.955 161.527 427.838 161.528V161.528Z" fill="#3F3D56"/>
<path d="M154.988 146.579C155.87 146.578 156.716 146.228 157.34 145.605C157.964 144.983 158.314 144.138 158.315 143.258V98.6331C158.315 97.7521 157.965 96.9072 157.341 96.2842C156.717 95.6612 155.87 95.3112 154.988 95.3112C154.106 95.3112 153.259 95.6612 152.635 96.2842C152.011 96.9072 151.661 97.7521 151.661 98.6331V143.258C151.662 144.138 152.012 144.983 152.636 145.605C153.26 146.228 154.106 146.578 154.988 146.579V146.579Z" fill="#3F3D56"/>
<path d="M283.849 15.2358H309.637C310.188 15.2358 310.717 15.017 311.107 14.6277C311.497 14.2383 311.717 13.7102 311.717 13.1596C311.717 12.6089 311.497 12.0808 311.107 11.6915C310.717 11.3021 310.188 11.0834 309.637 11.0834H283.849C283.298 11.0834 282.769 11.3021 282.379 11.6915C281.989 12.0808 281.77 12.6089 281.77 13.1596C281.77 13.7102 281.989 14.2383 282.379 14.6277C282.769 15.017 283.298 15.2358 283.849 15.2358Z" fill="white"/>
<path d="M270.539 14.8206C269.621 14.8206 268.876 14.0769 268.876 13.1596C268.876 12.2423 269.621 11.4987 270.539 11.4987C271.458 11.4987 272.203 12.2423 272.203 13.1596C272.203 14.0769 271.458 14.8206 270.539 14.8206Z" fill="white"/>
<path d="M70.6399 472.557C70.0324 472.579 69.4328 472.414 68.9223 472.084C68.4119 471.755 68.0152 471.277 67.786 470.715C67.5569 470.153 67.5064 469.534 67.6413 468.942C67.7762 468.35 68.09 467.814 68.5403 467.407C68.6179 467.111 68.6736 466.898 68.7511 466.602C68.1841 465.123 67.1875 463.846 65.8891 462.936C64.5906 462.026 63.0495 461.524 61.4633 461.494C59.8771 461.464 58.318 461.908 56.986 462.768C55.6539 463.628 54.6096 464.866 53.9868 466.323C50.3951 474.5 45.7669 482.956 47.9421 492.02C33.3063 460.273 38.7611 421.008 61.0939 394.189C67.2278 390.892 72.2303 384.977 73.5839 378.066C70.5542 379.059 66.8125 376.571 69.1133 373.417C70.1091 372.213 71.1144 371.018 72.11 369.814C60.7551 357.508 46.9043 376.547 59.3739 393.128C55.194 398.259 51.563 403.812 48.5398 409.697C49.2848 403.425 48.5277 397.066 46.3306 391.143C44.0994 385.621 39.8632 380.948 36.1391 376.158C31.6112 370.32 22.1529 372.904 21.4661 380.25C25.6825 381.678 26.1739 387.783 21.3277 388.572C22.4644 402.261 31.2948 414.915 43.5648 421.031C38.8908 433.739 36.9837 447.296 37.9706 460.798C35.9451 445.01 19.0281 441.022 7.23816 434.643C6.48857 434.153 5.61233 433.891 4.71634 433.89C3.82034 433.888 2.94329 434.148 2.19222 434.635C1.44116 435.123 0.848544 435.818 0.48662 436.637C0.124697 437.455 0.00910901 438.361 0.154009 439.244C1.78318 439.923 3.34071 440.762 4.80366 441.749C5.4891 442.219 6.0123 442.889 6.30151 443.667C6.59071 444.445 6.63179 445.293 6.4191 446.095C6.20641 446.898 5.75036 447.615 5.11348 448.148C4.4766 448.682 3.69005 449.005 2.86166 449.075C8.69391 463.89 24.0421 473.947 39.9031 474.042C41.3643 480.669 43.5113 487.127 46.3096 493.31L69.8498 493.534C69.9368 493.274 70.0152 493.005 70.0937 492.744C67.9135 492.86 65.7272 492.71 63.5837 492.295C69.4135 485.536 73.905 482.102 70.6406 472.557L70.6399 472.557Z" fill="#F2F2F2"/>
<path d="M364.961 24.1445H387.421C388.524 24.1445 389.582 23.707 390.362 22.9283C391.142 22.1496 391.58 21.0934 391.58 19.9921C391.58 18.8908 391.142 17.8347 390.362 17.0559C389.582 16.2772 388.524 15.8397 387.421 15.8397H364.961C363.858 15.8397 362.8 16.2772 362.02 17.0559C361.24 17.8347 360.802 18.8908 360.802 19.9921C360.802 21.0934 361.24 22.1496 362.02 22.9283C362.8 23.707 363.858 24.1445 364.961 24.1445Z" fill="#E6E6E6"/>
<path d="M217.722 23.7293C215.655 23.7293 213.979 22.0561 213.979 19.9922C213.979 17.9282 215.655 16.255 217.722 16.255C219.789 16.255 221.465 17.9282 221.465 19.9922C221.465 22.0561 219.789 23.7293 217.722 23.7293Z" fill="#E6E6E6"/>
<path d="M206.076 23.7293C204.008 23.7293 202.332 22.0561 202.332 19.9922C202.332 17.9282 204.008 16.255 206.076 16.255C208.143 16.255 209.819 17.9282 209.819 19.9922C209.819 22.0561 208.143 23.7293 206.076 23.7293Z" fill="#E6E6E6"/>
<path d="M194.43 23.7293C192.362 23.7293 190.686 22.0561 190.686 19.9922C190.686 17.9282 192.362 16.255 194.43 16.255C196.497 16.255 198.173 17.9282 198.173 19.9922C198.173 22.0561 196.497 23.7293 194.43 23.7293Z" fill="#E6E6E6"/>
<path d="M220.339 82.1818H361.506C364.24 82.1855 366.862 83.2717 368.795 85.2021C370.729 87.1325 371.817 89.7497 371.821 92.4797V184.09C371.817 186.82 370.729 189.437 368.795 191.367C366.862 193.298 364.24 194.384 361.506 194.388H220.339C217.604 194.385 214.982 193.3 213.048 191.369C211.114 189.438 210.026 186.82 210.024 184.09V92.4797C210.026 89.7492 211.114 87.1313 213.048 85.2006C214.982 83.2698 217.604 82.1841 220.339 82.1818V82.1818Z" fill="#F2F2F2"/>
<path d="M264.533 121.29C277.291 143.809 291.368 165.555 306.693 186.416H328.831C314.331 168.781 299.82 151.145 285.299 133.51C281.133 128.432 276.611 123.112 270.363 121.049L264.533 121.29Z" fill="#3F3D56"/>
<path d="M293.953 117.68C296.263 120.082 298.475 122.58 300.558 125.176C305.143 130.689 309.665 136.25 314.202 141.796C317.028 145.245 319.853 148.695 322.647 152.145C323.534 151.576 324.376 150.94 325.166 150.243C329.627 146.376 332.395 140.919 332.875 135.041C333.355 129.162 331.51 123.33 327.734 118.793C323.959 114.256 318.553 111.377 312.677 110.771C306.8 110.165 300.919 111.881 296.295 115.552C295.461 116.201 294.679 116.912 293.953 117.68V117.68Z" fill="#00FFE0"/>
<path d="M210.024 115.06V118.407L211.521 117.859L232.592 110.169C239.455 107.669 246.301 104.812 253.389 103.01C259.555 101.249 266.103 101.333 272.222 103.251C277.677 105.266 282.668 108.359 286.896 112.345C288.768 114.072 290.581 115.841 292.336 117.676C292.91 118.283 293.484 118.889 294.05 119.495C295.747 121.339 297.386 123.224 298.941 125.176C303.525 130.69 308.05 136.254 312.584 141.794C315.412 145.248 318.241 148.695 321.036 152.141C330.369 163.544 339.647 174.968 348.87 186.415C350.112 186.401 351.348 186.245 352.555 185.95C343.146 174.282 333.694 162.644 324.197 151.037C323.98 150.771 323.764 150.505 323.548 150.239C322.433 148.853 321.293 147.457 320.162 146.07C315.429 140.282 310.693 134.499 305.954 128.722C302.51 124.52 299.091 120.301 295.381 116.314C295.156 116.057 294.924 115.808 294.682 115.55C294.325 115.168 293.967 114.795 293.601 114.404C285.54 106.091 275.483 98.7415 263.438 98.5422C256.35 98.4342 249.504 100.677 242.916 103.043C235.82 105.61 228.749 108.217 221.662 110.808L210.024 115.06Z" fill="#3F3D56"/>
<path d="M206.705 396.652H375.288C378.023 396.649 380.644 395.563 382.578 393.632C384.512 391.702 385.599 389.085 385.603 386.354V363.672C385.599 360.942 384.512 358.324 382.578 356.394C380.644 354.464 378.023 353.378 375.288 353.375H206.705C203.97 353.378 201.349 354.464 199.415 356.394C197.481 358.324 196.394 360.942 196.391 363.672V386.354C196.394 389.085 197.481 391.702 199.415 393.632C201.349 395.563 203.97 396.649 206.705 396.652Z" fill="#F2F2F2"/>
<path d="M206.705 280.385H375.288C378.023 280.382 380.644 279.296 382.578 277.365C384.512 275.435 385.599 272.818 385.603 270.088V247.405C385.599 244.675 384.512 242.057 382.578 240.127C380.644 238.197 378.023 237.111 375.288 237.108H206.705C203.97 237.111 201.349 238.197 199.415 240.127C197.481 242.057 196.394 244.675 196.391 247.405V270.088C196.394 272.818 197.481 275.435 199.415 277.365C201.349 279.296 203.97 280.382 206.705 280.385V280.385Z" fill="#F2F2F2"/>
<path d="M206.705 338.518H375.288C378.023 338.515 380.644 337.429 382.578 335.499C384.512 333.568 385.599 330.951 385.603 328.221V305.538C385.599 302.808 384.512 300.191 382.578 298.261C380.644 296.33 378.023 295.244 375.288 295.241H206.705C203.97 295.244 201.349 296.33 199.415 298.261C197.481 300.191 196.394 302.808 196.391 305.538V328.221C196.394 330.951 197.481 333.568 199.415 335.499C201.349 337.429 203.97 338.515 206.705 338.518V338.518Z" fill="#F2F2F2"/>
<path d="M270.515 371.131H320.187C320.776 371.131 321.341 370.897 321.758 370.481C322.175 370.065 322.409 369.501 322.409 368.913C322.409 368.324 322.175 367.76 321.758 367.344C321.341 366.928 320.776 366.694 320.187 366.694H270.515C269.926 366.694 269.361 366.928 268.944 367.344C268.527 367.76 268.293 368.324 268.293 368.913C268.293 369.501 268.527 370.065 268.944 370.481C269.361 370.897 269.926 371.131 270.515 371.131V371.131Z" fill="white"/>
<path d="M222.741 383.332H320.742C321.332 383.332 321.897 383.098 322.314 382.682C322.73 382.266 322.964 381.702 322.964 381.114C322.964 380.525 322.73 379.961 322.314 379.545C321.897 379.129 321.332 378.895 320.742 378.895H222.741C222.152 378.895 221.587 379.129 221.17 379.545C220.753 379.961 220.519 380.525 220.519 381.114C220.519 381.702 220.753 382.266 221.17 382.682C221.587 383.098 222.152 383.332 222.741 383.332V383.332Z" fill="white"/>
<path d="M346.576 389.887C338.348 389.887 331.678 383.228 331.678 375.013C331.678 366.799 338.348 360.14 346.576 360.14C354.804 360.14 361.474 366.799 361.474 375.013C361.474 383.228 354.804 389.887 346.576 389.887Z" fill="white"/>
<path d="M349.895 395.104C351.416 394.394 353.153 394.305 354.738 394.855C356.323 395.406 357.631 396.552 358.382 398.049C358.53 398.356 358.653 398.675 358.748 399.002L381.183 400.34L384.508 411.944L353.974 406.793C352.585 407.083 351.139 406.906 349.862 406.289C348.585 405.672 347.548 404.65 346.913 403.383C346.559 402.659 346.352 401.872 346.302 401.067C346.253 400.263 346.363 399.457 346.625 398.694C346.888 397.932 347.299 397.229 347.833 396.625C348.368 396.022 349.017 395.529 349.743 395.175C349.793 395.151 349.844 395.127 349.895 395.104Z" fill="#FFB6B6"/>
<path d="M399.415 337.867C400.893 337.263 402.485 336.984 404.081 337.049C405.677 337.114 407.24 337.521 408.664 338.243C410.088 338.965 411.34 339.985 412.334 341.233C413.329 342.481 414.042 343.928 414.426 345.476L420.594 370.343L419.434 413.847C419.434 413.847 387.239 420.014 381.834 416.05C376.43 412.086 376.937 409.134 376.43 412.086C375.922 415.037 373.602 416.275 373.57 415.101C373.538 413.927 373.276 414.128 371.929 413.774C370.582 413.42 364.638 411.233 364.638 411.233L364.371 398.83C364.371 398.83 374.199 395.11 376.583 396.22C378.967 397.33 376.075 399.171 378.967 397.33C381.858 395.488 382.175 389.676 382.669 394.914C383.163 400.152 384.611 401.128 386.779 398.798C388.947 396.469 398.991 397.957 398.991 397.957L392.599 349.598C392.278 347.166 392.772 344.696 394.005 342.574C395.238 340.451 397.141 338.796 399.415 337.867V337.867Z" fill="#00FFE0"/>
<path d="M182.604 466.877L182.265 457.717L217.496 452.054L217.995 465.573L182.604 466.877Z" fill="#FFB6B6"/>
<path d="M188.999 469.635L189.333 454.968L183.053 455.199L172.913 441.64C172.413 440.97 171.711 440.478 170.91 440.235C170.109 439.992 169.251 440.01 168.462 440.288C167.672 440.566 166.992 441.089 166.521 441.78C166.051 442.471 165.813 443.294 165.844 444.129L166.488 461.552L172.811 464.326L166.642 465.728L166.885 472.297L188.999 469.635Z" fill="#2F2E41"/>
<path d="M380.885 487.883L269.297 474.929C269.297 474.929 221.11 477.708 209.804 470.365L197.881 468.862L197.235 451.378C197.235 451.378 204.526 451.432 208.717 449.482C212.909 447.532 209.996 445.147 213.992 447.493C217.989 449.839 217.567 450.121 220.657 449.042C223.746 447.964 365.441 442.182 365.441 442.182L380.885 487.883Z" fill="#2F2E41"/>
<path d="M233.841 480.296L227.353 473.81L249.322 445.738L258.899 455.31L233.841 480.296Z" fill="#FFB6B6"/>
<path d="M240.409 477.976L230.662 466.997L226.215 471.431L209.545 468.376C208.721 468.225 207.871 468.34 207.118 468.706C206.366 469.071 205.75 469.667 205.36 470.407C204.971 471.147 204.828 471.992 204.954 472.818C205.08 473.644 205.466 474.409 206.058 475L218.4 487.336L224.925 485.076L221.357 490.292L226.011 494.943L240.409 477.976Z" fill="#2F2E41"/>
<path d="M424.91 426.872L423.801 452.616C422.495 482.923 389.063 501.266 363.139 485.442C362.661 485.151 362.182 484.849 361.701 484.536C361.701 484.536 351.873 481.901 352.171 477.728C352.47 473.556 350.069 471.525 347.944 472.663C345.819 473.801 318 434.386 318 434.386C318 434.386 260.201 463.169 247.451 469.945L233.996 466.285C233.996 466.285 228.933 468.673 230.757 465.22C232.581 461.767 232.908 463.42 233.468 459.658C234.029 455.896 235.462 451.232 236.331 451.428C237.201 451.624 307.835 402.268 307.835 402.268C307.835 402.268 319.343 390.641 333.617 398.318C333.914 399.445 333.66 399.485 333.66 399.485L380.814 437.843L387.476 425.211L424.91 426.872Z" fill="#2F2E41"/>
<path d="M393.217 332.278L413.434 322.818L419.487 333.333C419.487 333.333 435.743 356.492 435.979 373.2C436.215 389.907 433.33 394.876 433.33 394.876C433.33 394.876 440.339 400.107 436.834 403.305C433.33 406.503 425.571 407.882 431.53 409.269C437.489 410.655 435.979 424.689 429.324 427.181C422.669 429.672 386.929 429.651 386.929 429.651C387.25 428.562 387.274 427.408 386.997 426.308C386.721 425.208 386.155 424.201 385.357 423.393C382.586 420.621 380.091 422.61 382.586 418.294C385.082 413.977 389.241 416.468 385.914 410.655C382.586 404.842 382.588 403.104 382.588 403.104C382.588 403.104 375.804 390.216 386.021 376.235C386.644 375.382 386.121 375.349 386.121 375.349L394.371 347.748L393.217 332.278Z" fill="#00FFE0"/>
<path d="M425.798 292.504C425.627 296.767 428.318 302.807 429.644 306.45C431.061 310.344 424.919 315.513 420.989 316.645C420.784 315.296 420.11 314.062 419.085 313.159C419.368 314.445 419.393 315.774 419.157 317.069L385.926 324.622C379.948 317.71 373.937 307.774 375.248 295.79C374.934 293.515 375.3 291.197 376.301 289.129C377.302 287.06 378.892 285.333 380.872 284.164L397.672 274.256C404.818 272.632 413.817 271.651 418.978 276.065C421.284 278.113 423.096 280.656 424.277 283.503C425.458 286.35 425.978 289.427 425.798 292.504V292.504Z" fill="#2F2E41"/>
<path d="M396.095 320.97C385.528 320.97 376.962 312.419 376.962 301.869C376.962 291.32 385.528 282.768 396.095 282.768C406.661 282.768 415.227 291.32 415.227 301.869C415.227 312.419 406.661 320.97 396.095 320.97Z" fill="#FFB6B6"/>
<path d="M418.509 291.665L419.432 295.714L403.291 299.382C403.277 298.563 403.093 297.756 402.751 297.012C402.41 296.267 401.918 295.601 401.306 295.055C401.654 296.643 401.615 298.291 401.19 299.86C392.485 304.736 384.64 306.464 377.604 305.22C376.651 305.437 375.651 305.267 374.823 304.747C373.996 304.227 373.409 303.401 373.192 302.449V302.449C370.361 290.036 377.777 277.348 390.15 274.267C393.158 273.516 396.285 273.372 399.349 273.844C402.413 274.316 405.352 275.394 407.993 277.014C410.635 278.634 412.925 280.765 414.731 283.281C416.537 285.797 417.821 288.647 418.509 291.665V291.665Z" fill="#2F2E41"/>
<path d="M409.072 264.952C406.943 264.491 404.691 264.602 402.767 263.163L404.029 266.055C400.53 265.098 396.8 265.47 393.559 267.099C392.596 267.53 391.774 268.225 391.189 269.102C390.875 269.632 390.684 270.226 390.63 270.84C390.576 271.453 390.66 272.071 390.878 272.648C391.084 273.143 391.392 273.589 391.782 273.958C392.171 274.327 392.633 274.611 393.139 274.792C394.034 275.06 394.973 275.159 395.905 275.081C399.833 274.989 403.761 274.898 407.69 274.807C409.187 274.9 410.682 274.609 412.036 273.963C412.755 273.52 413.329 272.876 413.687 272.112C414.046 271.347 414.172 270.495 414.052 269.659C413.677 267.03 411.2 265.413 409.072 264.952Z" fill="#2F2E41"/>
<path d="M305.285 414.654C305.331 414.6 305.383 414.552 305.442 414.511C305.585 414.345 305.759 414.209 305.954 414.11L307.354 413.362L316.649 403.06C317.187 402.78 317.813 402.72 318.394 402.893L318.418 402.901L322.4 404.13L325.824 405.191L330.607 406.671L363.188 416.743L384.604 423.363C385.183 423.545 385.667 423.948 385.952 424.484C386.236 425.019 386.299 425.645 386.126 426.226C386.025 426.546 385.859 426.841 385.637 427.093L384.956 427.851L383.526 429.44L380.214 436.292L379.296 437.316C379.003 437.642 378.623 437.878 378.201 437.996C377.779 438.114 377.331 438.11 376.912 437.984L306.358 418.397C305.991 418.279 305.66 418.072 305.392 417.796C305.124 417.519 304.929 417.181 304.823 416.811C304.717 416.441 304.704 416.051 304.784 415.675C304.865 415.299 305.037 414.948 305.285 414.654V414.654Z" fill="#CCCCCC"/>
<path d="M309.474 312.75L310.84 312.971C311.215 313.033 311.549 313.241 311.771 313.548L312.373 314.389L317.803 327.943C318.024 328.253 318.113 328.638 318.05 329.013L317.414 332.875L319.818 401.81C319.757 402.166 319.566 402.487 319.28 402.71L308.738 416.789L308.492 416.984L307.961 417.399C307.689 417.609 307.351 417.716 307.007 417.702L306.111 417.659C305.908 417.649 305.709 417.596 305.527 417.504C305.346 417.412 305.186 417.282 305.059 417.123C304.93 416.966 304.837 416.783 304.785 416.587C304.734 416.39 304.725 416.185 304.76 415.985L307.818 313.93C307.88 313.555 308.088 313.22 308.398 312.998C308.707 312.777 309.091 312.687 309.467 312.749L309.474 312.75Z" fill="#CCCCCC"/>
<path d="M311.761 318.107L316.571 332.734L318.432 391.161L310.945 397.805L311.761 318.107Z" fill="#00FFE0"/>
<path d="M348.957 407.231C350.477 406.521 352.214 406.432 353.8 406.983C355.385 407.533 356.692 408.679 357.444 410.176C357.592 410.483 357.714 410.802 357.809 411.129L380.244 412.467L383.569 424.071L353.035 418.921C351.646 419.21 350.2 419.033 348.923 418.416C347.646 417.799 346.609 416.777 345.975 415.51C345.26 414.047 345.156 412.361 345.687 410.821C346.217 409.282 347.338 408.016 348.804 407.303C348.854 407.278 348.905 407.254 348.957 407.231Z" fill="#FFB6B6"/>
<path d="M398.476 349.994C399.955 349.39 401.546 349.111 403.142 349.176C404.738 349.241 406.301 349.649 407.725 350.37C409.15 351.092 410.401 352.112 411.396 353.36C412.39 354.608 413.103 356.055 413.487 357.603L419.655 382.47L418.495 425.974C418.495 425.974 386.3 432.141 380.896 428.177C375.491 424.213 375.998 421.262 375.491 424.213C374.983 427.164 372.664 428.402 372.631 427.228C372.599 426.054 372.337 426.255 370.99 425.901C369.643 425.547 363.699 423.36 363.699 423.36L363.433 410.957C363.433 410.957 373.26 407.237 375.644 408.347C378.028 409.457 375.137 411.298 378.028 409.457C380.92 407.615 381.236 401.803 381.73 407.041C382.225 412.279 383.672 413.255 385.84 410.926C388.008 408.596 398.052 410.084 398.052 410.084L391.661 361.726C391.339 359.293 391.833 356.823 393.067 354.701C394.3 352.578 396.202 350.923 398.476 349.994V349.994Z" fill="#00FFE0"/>
<path d="M425 494C425 494.131 424.982 494.262 424.947 494.383C424.912 494.505 424.86 494.615 424.794 494.708C424.729 494.801 424.651 494.875 424.565 494.925C424.48 494.975 424.388 495 424.295 495H0.704725C0.517824 495 0.338593 494.895 0.206434 494.707C0.0742754 494.52 1.21844e-05 494.265 1.21844e-05 494C1.21844e-05 493.735 0.0742754 493.48 0.206434 493.293C0.338593 493.105 0.517824 493 0.704725 493H424.295C424.388 493 424.48 493.025 424.565 493.075C424.651 493.125 424.729 493.199 424.794 493.292C424.86 493.385 424.912 493.495 424.947 493.617C424.982 493.738 425 493.869 425 494V494Z" fill="#CCCCCC"/>
<path d="M71.9438 280.385H240.527C243.262 280.382 245.883 279.296 247.817 277.365C249.751 275.435 250.838 272.818 250.841 270.088V247.405C250.838 244.675 249.751 242.057 247.817 240.127C245.883 238.197 243.262 237.111 240.527 237.108H71.9438C69.2092 237.111 66.5875 238.197 64.6539 240.127C62.7202 242.057 61.6326 244.675 61.6294 247.405V270.088C61.6326 272.818 62.7202 275.435 64.6539 277.365C66.5875 279.296 69.2092 280.382 71.9438 280.385V280.385Z" fill="#E6E6E6"/>
<path d="M135.754 254.864H185.426C186.015 254.864 186.58 254.63 186.997 254.214C187.414 253.798 187.648 253.234 187.648 252.646C187.648 252.057 187.414 251.493 186.997 251.077C186.58 250.661 186.015 250.427 185.426 250.427H135.754C135.165 250.427 134.6 250.661 134.183 251.077C133.766 251.493 133.532 252.057 133.532 252.646C133.532 253.234 133.766 253.798 134.183 254.214C134.6 254.63 135.165 254.864 135.754 254.864V254.864Z" fill="white"/>
<path d="M87.9804 267.065H185.981C186.571 267.065 187.136 266.831 187.553 266.415C187.969 265.999 188.203 265.435 188.203 264.847C188.203 264.258 187.969 263.694 187.553 263.278C187.136 262.862 186.571 262.628 185.981 262.628H87.9804C87.3911 262.628 86.8259 262.862 86.4092 263.278C85.9925 263.694 85.7583 264.258 85.7583 264.847C85.7583 265.435 85.9925 265.999 86.4092 266.415C86.8259 266.831 87.3911 267.065 87.9804 267.065V267.065Z" fill="white"/>
<path d="M211.815 273.62C203.587 273.62 196.916 266.961 196.916 258.746C196.916 250.532 203.587 243.873 211.815 243.873C220.043 243.873 226.713 250.532 226.713 258.746C226.713 266.961 220.043 273.62 211.815 273.62Z" fill="white"/>
<path d="M126.015 338.518H294.598C297.332 338.515 299.954 337.429 301.888 335.499C303.821 333.568 304.909 330.951 304.912 328.221V305.538C304.909 302.808 303.821 300.191 301.888 298.261C299.954 296.33 297.332 295.244 294.598 295.241H126.015C123.28 295.244 120.658 296.33 118.725 298.261C116.791 300.191 115.703 302.808 115.7 305.538V328.221C115.703 330.951 116.791 333.568 118.725 335.499C120.658 337.429 123.28 338.515 126.015 338.518V338.518Z" fill="#E6E6E6"/>
<path d="M189.825 312.997H239.496C240.086 312.997 240.651 312.764 241.068 312.348C241.484 311.932 241.719 311.368 241.719 310.779C241.719 310.191 241.484 309.627 241.068 309.211C240.651 308.795 240.086 308.561 239.496 308.561H189.825C189.236 308.561 188.67 308.795 188.254 309.211C187.837 309.627 187.603 310.191 187.603 310.779C187.603 311.368 187.837 311.932 188.254 312.348C188.67 312.764 189.236 312.997 189.825 312.997V312.997Z" fill="white"/>
<path d="M142.051 325.198H240.052C240.641 325.198 241.207 324.965 241.623 324.549C242.04 324.133 242.274 323.568 242.274 322.98C242.274 322.392 242.04 321.828 241.623 321.411C241.207 320.995 240.641 320.762 240.052 320.762H142.051C141.462 320.762 140.897 320.995 140.48 321.411C140.063 321.828 139.829 322.392 139.829 322.98C139.829 323.568 140.063 324.133 140.48 324.549C140.897 324.965 141.462 325.198 142.051 325.198V325.198Z" fill="white"/>
<path d="M265.885 331.753C257.657 331.753 250.987 325.094 250.987 316.88C250.987 308.665 257.657 302.006 265.885 302.006C274.113 302.006 280.783 308.665 280.783 316.88C280.783 325.094 274.113 331.753 265.885 331.753Z" fill="white"/>
</svg>
