<svg width="741" height="575" viewBox="0 0 741 575" fill="none" xmlns="http://www.w3.org/2000/svg">
<g clip-path="url(#clip0_105_2)">
<path d="M717.413 0H69.7932C63.7777 0.0072432 58.0106 2.40012 53.757 6.65375C49.5033 10.9074 47.1105 16.6745 47.1032 22.69V417.31C47.1105 423.326 49.5033 429.093 53.757 433.346C58.0106 437.6 63.7777 439.993 69.7932 440H717.413C723.429 439.993 729.196 437.6 733.449 433.346C737.703 429.093 740.096 423.326 740.103 417.31V22.69C740.096 16.6745 737.703 10.9074 733.449 6.65375C729.196 2.40012 723.429 0.00724584 717.413 0V0ZM738.103 417.31C738.103 420.027 737.568 422.717 736.528 425.228C735.489 427.738 733.965 430.019 732.043 431.94C730.122 433.861 727.841 435.385 725.331 436.425C722.821 437.465 720.13 438 717.413 438H69.7932C64.3059 438 59.0433 435.82 55.1632 431.94C51.2831 428.06 49.1032 422.797 49.1032 417.31V157.676C49.1032 137.232 53.1299 116.989 60.9533 98.1011C68.7767 79.2137 80.2437 62.0521 94.6995 47.5963C109.155 33.1405 126.317 21.6735 145.204 13.8501C164.092 6.02666 184.335 2 204.779 2H717.413C720.13 2 722.821 2.53516 725.331 3.57493C727.841 4.6147 730.122 6.13872 732.043 8.05996C733.965 9.9812 735.489 12.2621 736.528 14.7723C737.568 17.2825 738.103 19.973 738.103 22.69V417.31Z" fill="#F1F1F1"/>
<path d="M678.922 335.731H382.292C379.213 335.727 376.261 334.503 374.084 332.325C371.906 330.148 370.682 327.196 370.678 324.117V227.782C370.682 224.702 371.906 221.75 374.084 219.573C376.261 217.396 379.213 216.171 382.292 216.167H678.922C682.001 216.171 684.954 217.396 687.131 219.573C689.308 221.75 690.533 224.702 690.537 227.782V324.117C690.533 327.196 689.308 330.148 687.131 332.325C684.954 334.503 682.001 335.727 678.922 335.731V335.731Z" fill="#F1F1F1"/>
<path d="M216.405 63.7075C221.178 63.7075 225.047 59.7521 225.047 54.873C225.047 49.9938 221.178 46.0385 216.405 46.0385C211.633 46.0385 207.763 49.9938 207.763 54.873C207.763 59.7521 211.633 63.7075 216.405 63.7075Z" fill="#F1F1F1"/>
<path d="M186.551 63.7075C191.324 63.7075 195.193 59.7521 195.193 54.873C195.193 49.9938 191.324 46.0385 186.551 46.0385C181.779 46.0385 177.91 49.9938 177.91 54.873C177.91 59.7521 181.779 63.7075 186.551 63.7075Z" fill="#F1F1F1"/>
<path d="M156.698 63.7075C161.47 63.7075 165.34 59.7521 165.34 54.873C165.34 49.9938 161.47 46.0385 156.698 46.0385C151.925 46.0385 148.056 49.9938 148.056 54.873C148.056 59.7521 151.925 63.7075 156.698 63.7075Z" fill="#F1F1F1"/>
<path d="M498.776 145.109H377.91C375.916 145.109 374.003 144.317 372.593 142.906C371.183 141.496 370.39 139.583 370.39 137.589C370.39 135.594 371.183 133.682 372.593 132.271C374.003 130.861 375.916 130.069 377.91 130.069H498.776C500.77 130.069 502.683 130.861 504.093 132.271C505.503 133.682 506.296 135.594 506.296 137.589C506.296 139.583 505.503 141.496 504.093 142.906C502.683 144.317 500.77 145.109 498.776 145.109Z" fill="#00FFE0"/>
<path d="M593.099 170.561H377.91C375.916 170.561 374.003 169.769 372.593 168.359C371.183 166.948 370.39 165.036 370.39 163.041C370.39 161.047 371.183 159.134 372.593 157.724C374.003 156.313 375.916 155.521 377.91 155.521H593.099C595.094 155.521 597.006 156.313 598.417 157.724C599.827 159.134 600.619 161.047 600.619 163.041C600.619 165.036 599.827 166.948 598.417 168.359C597.006 169.769 595.094 170.561 593.099 170.561V170.561Z" fill="#00FFE0"/>
<path d="M162.313 563.077L172.402 563.076L177.201 524.161L162.311 524.162L162.313 563.077Z" fill="#FFB6B6"/>
<path d="M161.957 573.602L192.982 573.601V573.208C192.982 570.006 191.71 566.934 189.445 564.67C187.181 562.405 184.109 561.133 180.907 561.133H180.906L175.239 556.833L164.665 561.133L161.957 561.134L161.957 573.602Z" fill="#120F21"/>
<path d="M103.992 563.077L114.081 563.076L118.88 524.161L103.99 524.162L103.992 563.077Z" fill="#FFB6B6"/>
<path d="M103.636 573.602L134.661 573.601V573.208C134.661 570.006 133.389 566.934 131.124 564.67C128.86 562.405 125.788 561.133 122.586 561.133H122.585L116.918 556.833L106.344 561.133L103.636 561.134L103.636 573.602Z" fill="#120F21"/>
<path d="M230.272 304.697L195.898 272.461L205.208 256.865L239.109 295.633C241.121 295.431 243.146 295.852 244.91 296.84C246.674 297.829 248.091 299.336 248.969 301.157C249.847 302.978 250.143 305.026 249.818 307.021C249.492 309.017 248.56 310.864 247.149 312.312C245.737 313.759 243.915 314.738 241.928 315.114C239.941 315.49 237.887 315.246 236.044 314.414C234.201 313.583 232.658 312.204 231.626 310.466C230.593 308.728 230.12 306.714 230.272 304.697V304.697Z" fill="#FFB6B6"/>
<path d="M94.1212 351.63C94.1212 351.63 89.8538 390.036 99.0998 426.309L95.6174 443.843L103.367 544.373H122.178L135.373 378.656L160.003 544.373H179.76L177.335 453.336L185.887 365.854L182.314 345.94L94.1212 351.63Z" fill="#120F21"/>
<path d="M146.103 202H104.103L97.0398 219.958L98.7442 361.942C98.7442 361.942 181.958 361.942 187.648 356.253L169.867 294.375L163.466 215.429L146.103 202Z" fill="#F1F1F1"/>
<path d="M169.156 214.717L199.028 246.723L209.696 253.835L212.541 263.081L200.45 283.707L186.937 278.728L182.67 263.081L157.594 242.581L154.931 209.739L169.156 214.717Z" fill="#120F21"/>
<path d="M142.188 203.016L147.103 224L153.865 298.998L163.111 355.897H189.785L173.779 294.02L167.378 214.362L146.041 201.56L142.188 203.016Z" fill="#120F21"/>
<path d="M107.931 203.016L115.458 227.164L127.549 306.822L109.057 363.72L91.103 364L86.431 346.349L96.966 301.132L82.741 214.362L104.078 201.56L107.931 203.016Z" fill="#120F21"/>
<path d="M123.472 194.889C137.532 194.889 148.93 183.491 148.93 169.431C148.93 155.371 137.532 143.973 123.472 143.973C109.412 143.973 98.0141 155.371 98.0141 169.431C98.0141 183.491 109.412 194.889 123.472 194.889Z" fill="#FFB6B6"/>
<path d="M108.785 182.033C108.785 182.033 107.563 183.888 109.923 191.757L99.0998 183.067L97.9158 173.525C97.9158 173.525 92.4072 153.851 111.294 144.408C111.294 144.408 127.82 135.751 143.559 148.342C143.559 148.342 149.854 149.129 149.067 149.916C148.28 150.703 144.346 153.064 148.28 152.277C152.215 151.49 154.576 147.555 154.576 149.916C154.576 152.277 147.493 157.786 147.493 157.786C147.493 157.786 150.248 165.262 131.361 155.031C129.341 160.082 125.449 164.157 120.497 166.408L121.103 167L116.409 177.066C116.409 177.066 111.54 170.623 108.785 182.033Z" fill="#120F21"/>
<path d="M110.783 380.688L196.316 187.832C197.206 185.831 198.853 184.264 200.897 183.477C202.94 182.689 205.213 182.744 207.216 183.629L269.849 211.407C271.85 212.297 273.416 213.945 274.204 215.988C274.992 218.032 274.937 220.304 274.051 222.307L188.519 415.164C187.629 417.165 185.981 418.731 183.938 419.519C181.894 420.307 179.622 420.252 177.619 419.366L114.986 391.588C112.985 390.698 111.418 389.051 110.631 387.007C109.843 384.964 109.898 382.691 110.783 380.688Z" fill="#191435"/>
<path d="M110.783 380.688L196.316 187.832C197.206 185.831 198.853 184.264 200.897 183.477C202.94 182.689 205.213 182.744 207.216 183.629L269.849 211.407C271.85 212.297 273.416 213.945 274.204 215.988C274.992 218.032 274.937 220.304 274.051 222.307L188.519 415.164C187.629 417.165 185.981 418.731 183.938 419.519C181.894 420.307 179.622 420.252 177.619 419.366L114.986 391.588C112.985 390.698 111.418 389.051 110.631 387.007C109.843 384.964 109.898 382.691 110.783 380.688ZM272.722 221.718C273.452 220.068 273.497 218.195 272.848 216.511C272.199 214.827 270.908 213.47 269.26 212.736L206.626 184.958C204.976 184.228 203.103 184.183 201.419 184.832C199.736 185.481 198.378 186.772 197.644 188.421L112.112 381.278C111.382 382.928 111.337 384.801 111.986 386.485C112.635 388.169 113.926 389.526 115.575 390.26L178.208 418.038C179.859 418.767 181.731 418.813 183.415 418.163C185.099 417.514 186.457 416.224 187.19 414.575L272.722 221.718Z" fill="#F1F1F1"/>
<path d="M204.278 301.831C221.954 301.831 236.284 287.502 236.284 269.826C236.284 252.15 221.954 237.82 204.278 237.82C186.602 237.82 172.273 252.15 172.273 269.826C172.273 287.502 186.602 301.831 204.278 301.831Z" fill="#120F21"/>
<path d="M188.708 336.94C206.384 336.94 220.713 322.61 220.713 304.934C220.713 287.258 206.384 272.929 188.708 272.929C171.031 272.929 156.702 287.258 156.702 304.934C156.702 322.61 171.031 336.94 188.708 336.94Z" fill="#F1F1F1"/>
<path d="M160.161 369.3C156.319 367.596 152.85 365.152 149.953 362.107C147.055 359.063 144.786 355.477 143.274 351.556C141.762 347.634 141.037 343.453 141.141 339.251C141.245 335.049 142.176 330.909 143.88 327.067C145.584 323.225 148.028 319.756 151.072 316.859C154.117 313.961 157.702 311.692 161.624 310.18C165.546 308.668 169.727 307.943 173.929 308.047C178.13 308.151 182.27 309.082 186.112 310.786C202.271 317.952 219.989 354.707 202.394 353.018C182.245 351.084 176.32 376.466 160.161 369.3Z" fill="#00FFE0"/>
<path d="M117.113 350.313L92.1032 288L112.103 292L128.794 345.435C130.725 346.037 132.423 347.218 133.659 348.818C134.895 350.418 135.608 352.36 135.703 354.38C135.797 356.399 135.268 358.399 134.186 360.108C133.105 361.816 131.524 363.151 129.659 363.93C127.793 364.709 125.732 364.895 123.757 364.463C121.782 364.031 119.987 363.002 118.617 361.515C117.247 360.028 116.368 358.155 116.099 356.151C115.83 354.147 116.184 352.109 117.113 350.313L117.113 350.313Z" fill="#FFB6B6"/>
<path d="M76.6177 229.563C75.1619 245.626 78.1772 259.73 83.585 272.785L84.2795 284.397L89.8392 292.314L113.546 295.409L117.899 281.682L108.155 268.716L107.336 236.338L83.0241 214.097L76.6177 229.563Z" fill="#120F21"/>
<path d="M54.2589 556.983C53.7941 557.004 53.3339 556.882 52.9408 556.633C52.5476 556.384 52.2405 556.02 52.061 555.591C51.8815 555.162 51.8383 554.688 51.9373 554.233C52.0362 553.778 52.2725 553.365 52.6142 553.049L52.7697 552.431C52.7492 552.382 52.7286 552.332 52.7079 552.283C52.2396 551.177 51.455 550.234 50.4525 549.572C49.45 548.911 48.2744 548.56 47.0733 548.565C45.8722 548.569 44.6993 548.928 43.7017 549.597C42.7042 550.266 41.9266 551.215 41.4665 552.324C39.6279 556.753 37.2871 561.188 36.7107 565.87C36.4569 567.94 36.564 570.038 37.0272 572.071C32.7089 562.651 30.4665 552.413 30.4521 542.05C30.4511 539.45 30.5956 536.851 30.8848 534.267C31.1238 532.149 31.4554 530.045 31.8795 527.957C34.1941 516.626 39.1635 506.005 46.3796 496.967C49.8723 495.062 52.6968 492.131 54.4726 488.571C55.116 487.291 55.5707 485.925 55.8225 484.515C55.4285 484.566 54.337 478.566 54.6341 478.198C54.0851 477.365 53.1024 476.95 52.5027 476.137C49.5204 472.094 45.4115 472.8 43.2665 478.295C38.6843 480.607 38.6399 484.443 41.4515 488.131C43.2403 490.478 43.4861 493.654 45.0556 496.166C44.8941 496.373 44.7261 496.573 44.5647 496.78C41.613 500.575 39.0403 504.651 36.8837 508.948C37.4082 504.134 36.7822 499.264 35.0573 494.739C33.3091 490.522 30.0324 486.97 27.1468 483.324C26.3836 482.345 25.3472 481.613 24.1686 481.223C22.9899 480.832 21.722 480.8 20.525 481.13C19.328 481.46 18.2558 482.138 17.4437 483.077C16.6317 484.016 16.1163 485.175 15.9628 486.407C15.9569 486.461 15.9511 486.515 15.9455 486.568C16.3741 486.81 16.7937 487.067 17.2041 487.338C17.7198 487.683 18.1194 488.175 18.3505 488.751C18.5817 489.326 18.6335 489.958 18.4994 490.564C18.3652 491.169 18.0513 491.72 17.5987 492.144C17.1461 492.568 16.576 492.846 15.963 492.94L15.9002 492.95C16.0529 494.494 16.3228 496.025 16.7076 497.529C13.0058 511.845 20.9977 517.059 32.409 517.293C32.661 517.422 32.9064 517.552 33.1583 517.674C30.9915 523.815 29.6324 530.211 29.1151 536.702C28.8222 540.532 28.8395 544.379 29.1667 548.205L29.1474 548.07C28.3206 543.814 26.0506 539.975 22.7208 537.199C17.7752 533.137 10.7879 531.641 5.45251 528.375C4.88548 528.011 4.22616 527.817 3.55232 527.815C2.87847 527.813 2.21821 528.005 1.64941 528.366C1.0806 528.727 0.626985 529.244 0.342053 529.854C0.0571222 530.465 -0.0472362 531.144 0.0412873 531.812L0.0631073 531.955C0.85847 532.279 1.63288 532.652 2.38183 533.072C2.81041 533.314 3.22996 533.571 3.64046 533.842C4.15615 534.187 4.55573 534.679 4.78686 535.255C5.01799 535.83 5.06987 536.462 4.93572 537.067C4.80157 537.673 4.48763 538.224 4.03505 538.648C3.58247 539.072 3.01235 539.349 2.39939 539.444L2.33657 539.454C2.29138 539.46 2.25257 539.467 2.20746 539.473C3.56643 542.718 5.47379 545.705 7.84601 548.302C10.1606 560.799 20.102 561.985 30.7362 558.346H30.7427C31.9095 563.416 33.6 568.351 35.7871 573.072H53.8073C53.872 572.872 53.9301 572.665 53.9882 572.465C52.3202 572.57 50.6457 572.47 49.0019 572.168C50.3389 570.527 51.6759 568.874 53.0129 567.233C53.0427 567.203 53.0708 567.17 53.0969 567.136C53.7751 566.297 54.4597 565.464 55.1379 564.624L55.1383 564.623C55.1744 562.049 54.8791 559.481 54.2595 556.983L54.2589 556.983Z" fill="#F1F1F1"/>
<path d="M255.81 573.126C255.811 573.282 255.78 573.437 255.721 573.581C255.661 573.726 255.573 573.857 255.463 573.968C255.352 574.079 255.221 574.166 255.076 574.226C254.932 574.286 254.777 574.316 254.62 574.315H1.33018C1.01457 574.315 0.711894 574.19 0.488725 573.967C0.265557 573.744 0.140182 573.441 0.140182 573.126C0.140182 572.81 0.265557 572.507 0.488725 572.284C0.711894 572.061 1.01457 571.936 1.33018 571.936H254.62C254.777 571.935 254.932 571.966 255.076 572.025C255.221 572.085 255.352 572.172 255.463 572.283C255.573 572.394 255.661 572.525 255.721 572.67C255.78 572.814 255.811 572.969 255.81 573.126Z" fill="#F1F1F1"/>
</g>
<defs>
<clipPath id="clip0_105_2">
<rect width="740.103" height="574.316" fill="white"/>
</clipPath>
</defs>
</svg>
