<svg width="35" height="35" viewBox="0 0 35 35" fill="none" xmlns="http://www.w3.org/2000/svg">
<circle cx="17.5" cy="17.5" r="17.5" fill="white"/>
<g clip-path="url(#clip0_109_85)">
<path d="M13.7245 14.1472H10.5125C10.3699 14.1472 10.2544 14.2628 10.2544 14.4053V24.7241C10.2544 24.8667 10.3699 24.9822 10.5125 24.9822H13.7245C13.867 24.9822 13.9825 24.8667 13.9825 24.7241V14.4053C13.9825 14.2628 13.867 14.1472 13.7245 14.1472Z" fill="black"/>
<path d="M12.1195 9.01758C10.9508 9.01758 10 9.96736 10 11.1348C10 12.3027 10.9508 13.2529 12.1195 13.2529C13.2873 13.2529 14.2374 12.3027 14.2374 11.1348C14.2374 9.96736 13.2873 9.01758 12.1195 9.01758Z" fill="black"/>
<path d="M21.8943 13.8909C20.6043 13.8909 19.6506 14.4454 19.0722 15.0756V14.4054C19.0722 14.2629 18.9567 14.1473 18.8141 14.1473H15.738C15.5955 14.1473 15.48 14.2629 15.48 14.4054V24.7243C15.48 24.8668 15.5955 24.9823 15.738 24.9823H18.9431C19.0856 24.9823 19.2011 24.8668 19.2011 24.7243V19.6188C19.2011 17.8984 19.6684 17.2282 20.8677 17.2282C22.1738 17.2282 22.2776 18.3026 22.2776 19.7073V24.7243C22.2776 24.8669 22.3931 24.9824 22.5357 24.9824H25.7419C25.8844 24.9824 25.9999 24.8669 25.9999 24.7243V19.0642C25.9999 16.506 25.5121 13.8909 21.8943 13.8909Z" fill="black"/>
</g>
<defs>
<clipPath id="clip0_109_85">
<rect width="16" height="16" fill="white" transform="translate(10 9)"/>
</clipPath>
</defs>
</svg>
