<svg width="35" height="35" viewBox="0 0 35 35" fill="none" xmlns="http://www.w3.org/2000/svg">
<circle cx="17.5" cy="17.5" r="17.5" fill="white"/>
<path d="M26.4599 9.5022H9.54008C8.69198 9.5022 8 10.1942 8 11.0423V22.9579C8 23.806 8.69198 24.498 9.54008 24.498H26.4599C27.308 24.498 28 23.806 28 22.9579V11.0423C28 10.1942 27.308 9.5022 26.4599 9.5022ZM26.2363 10.6414L18.1055 17.595L9.97468 10.6414H26.2363ZM26.8608 22.9579C26.8608 23.1773 26.6793 23.3587 26.4599 23.3587H9.54008C9.32068 23.3587 9.13924 23.1773 9.13924 22.9579V11.4262L17.7342 18.7765C17.7384 18.7807 17.7468 18.7849 17.7511 18.7891C17.7553 18.7933 17.7637 18.7976 17.7679 18.8018C17.7806 18.8102 17.789 18.8187 17.8017 18.8229C17.8059 18.8271 17.8101 18.8271 17.8143 18.8313C17.8312 18.8397 17.8481 18.8482 17.865 18.8566C17.8692 18.8566 17.8734 18.8608 17.8776 18.8608C17.8903 18.8651 17.903 18.8735 17.9198 18.8777C17.9241 18.8777 17.9325 18.8819 17.9367 18.8819C17.9494 18.8862 17.962 18.8904 17.9747 18.8904C17.9789 18.8904 17.9873 18.8946 17.9916 18.8946C18.0042 18.8988 18.0211 18.8988 18.0338 18.903C18.038 18.903 18.0422 18.903 18.0464 18.903C18.0633 18.903 18.0844 18.9073 18.1013 18.9073C18.1181 18.9073 18.1392 18.9073 18.1561 18.903C18.1603 18.903 18.1646 18.903 18.1688 18.903C18.1814 18.903 18.1983 18.8988 18.211 18.8946C18.2152 18.8946 18.2236 18.8904 18.2278 18.8904C18.2405 18.8862 18.2532 18.8819 18.2658 18.8819C18.27 18.8819 18.2785 18.8777 18.2827 18.8777C18.2954 18.8735 18.308 18.8693 18.3249 18.8608C18.3291 18.8608 18.3333 18.8566 18.3376 18.8566C18.3544 18.8482 18.3713 18.8397 18.3882 18.8313C18.3924 18.8271 18.3966 18.8271 18.4008 18.8229C18.4135 18.8144 18.4219 18.8102 18.4346 18.8018C18.4388 18.7976 18.4473 18.7933 18.4515 18.7891C18.4557 18.7849 18.4641 18.7807 18.4684 18.7765L26.8608 11.6077V22.9579Z" fill="black"/>
</svg>
