<svg width="29" height="29" viewBox="0 0 29 29" fill="none" xmlns="http://www.w3.org/2000/svg">
<path d="M6.62767 4.31013L14.4673 0.348C15.0087 0.107542 15.5597 0 16.0913 0C18.3425 0 20.2927 1.96838 20.0631 4.36933L10.5402 9.802C10.6828 7.279 9.12288 4.92638 6.62767 4.31013V4.31013ZM25.7882 15.1803C24.6669 13.8064 20.2915 9.66183 18.8258 7.87592L8.126 14.001L6.81738 12.3649C8.21904 11.4502 8.5465 9.20025 7.58104 7.77442C5.90992 5.307 2.41663 6.52138 2.41663 9.13863C2.41663 9.92767 2.73442 10.8448 3.515 11.8272C3.53675 11.855 12.105 21.7959 13.8233 23.757C14.7513 24.8131 15.1295 25.932 15.1053 27.0316C25.7822 20.2988 24.5702 21.0407 24.7672 20.9114C25.9513 20.1345 26.5833 18.8005 26.5833 17.4955C26.5833 16.6605 26.3247 15.8376 25.7882 15.1803ZM9.40079 22.3542C6.80529 23.6713 6.52496 26.2837 7.92421 27.9101C8.58275 28.6738 9.45275 29 10.272 29C12.0555 29 13.6807 27.3845 12.1655 25.5236C10.5946 23.5915 9.40079 22.3542 9.40079 22.3542Z" fill="white"/>
</svg>
