<svg width="35" height="35" viewBox="0 0 35 35" fill="none" xmlns="http://www.w3.org/2000/svg">
<circle cx="17.5" cy="17.5" r="17.5" fill="white"/>
<g clip-path="url(#clip0_109_86)">
<path d="M20.2001 24.0176C20.7131 24.0176 20.7131 24.7979 20.2001 24.7979H10.799C10.5836 24.7979 10.4089 24.6231 10.4089 24.4076V12.6591C10.4089 12.5513 10.4526 12.4536 10.5231 12.3832L13.5902 9.31624C13.6663 9.24008 13.7661 9.2019 13.8659 9.2019H22.6891C22.9045 9.2019 23.0793 9.37671 23.0793 9.59214V16.421C23.0793 16.9343 22.299 16.9343 22.299 16.421V9.98219H14.0275L11.1892 12.8206V24.0176H20.2001V24.0176ZM13.563 20.5786C13.0497 20.5786 13.0497 19.7983 13.563 19.7983H19.3584C19.8716 19.7983 19.8716 20.5786 19.3584 20.5786H13.563ZM13.563 15.3877C13.0497 15.3877 13.0497 14.6074 13.563 14.6074H19.3584C19.8716 14.6074 19.8716 15.3877 19.3584 15.3877H13.563ZM13.563 17.118C13.0497 17.118 13.0497 16.3377 13.563 16.3377H19.3584C19.8716 16.3377 19.8716 17.118 19.3584 17.118H13.563ZM13.563 18.8483C13.0497 18.8483 13.0497 18.068 13.563 18.068H19.3584C19.8716 18.068 19.8716 18.8483 19.3584 18.8483H13.563ZM13.563 13.6574C13.0497 13.6574 13.0497 12.8771 13.563 12.8771H19.3584C19.8716 12.8771 19.8716 13.6574 19.3584 13.6574H13.563ZM22.947 18.1598C23.8889 18.1598 24.6524 18.9233 24.6524 19.8652C24.6524 20.2072 24.5517 20.5256 24.3784 20.7925C25.0884 21.2636 25.54 22.0412 25.5903 22.8939C25.6203 23.4053 24.8429 23.4508 24.813 22.9396C24.7731 22.2652 24.3857 21.6644 23.7901 21.3477C23.5414 21.4894 23.2538 21.5703 22.947 21.5703C22.6152 21.5703 22.3055 21.4756 22.0435 21.3116C21.4116 21.6162 20.9928 22.2384 20.9514 22.9396C20.9214 23.4508 20.1441 23.4053 20.1742 22.8939C20.2269 22.0023 20.7175 21.1954 21.4796 20.7343C21.3286 20.4797 21.2419 20.1827 21.2419 19.8652C21.2419 18.9235 22.0054 18.1598 22.947 18.1598V18.1598ZM22.947 18.9401C22.4362 18.9401 22.0222 19.3544 22.0222 19.8652C22.0222 20.376 22.4362 20.79 22.947 20.79C23.4579 20.79 23.8721 20.376 23.8721 19.8652C23.8721 19.3544 23.458 18.9401 22.947 18.9401V18.9401Z" fill="black"/>
</g>
<defs>
<clipPath id="clip0_109_86">
<rect width="16" height="16" fill="white" transform="translate(10 9)"/>
</clipPath>
</defs>
</svg>
