<svg xmlns="http://www.w3.org/2000/svg" viewBox="0 0 317.32 317.32"><defs><style>.cls-1{fill:#fcfcfc;}.cls-2{fill:#be1622;stroke:#be1622;stroke-miterlimit:10;stroke-width:5px;}.cls-3{fill:#1b4774;}</style></defs><g id="Layer_4" data-name="Layer 4"><circle class="cls-1" cx="158.66" cy="158.66" r="158.66"/><path class="cls-2" d="M225.09,159.63,190.55,62.5a1.6,1.6,0,0,0-3,0L119.06,243.66a1.59,1.59,0,0,1-3-.07l-27.76-84H18.22a2.51,2.51,0,0,0-2.51,2.52h0a2.51,2.51,0,0,0,2.51,2.51H84.73l31.32,93.19a1.59,1.59,0,0,0,3,0L187.53,76.71a1.61,1.61,0,0,1,3,0l31,88.42h77.33a2.77,2.77,0,0,0,2.76-2.77h0a2.77,2.77,0,0,0-2.76-2.77Z"/><path class="cls-3" d="M141.21,107.49H108.87v20.39h38.2V143.7H88.3V58.39h58.89V74.26H108.87v18h32.34Z"/><path class="cls-3" d="M232.5,226.85l9.78-53.5h20.39l-18.1,85.31H223.24L211.81,210l-11.19,48.63H179.35l-18.16-85.31h20.45l9.78,53.5,11.72-53.5H220.6Z"/></g></svg>